<?xml version="1.0" encoding="UTF-8" standalone="no"?>
<!DOCTYPE svg PUBLIC "-//W3C//DTD SVG 1.1//EN"
 "http://www.w3.org/Graphics/SVG/1.1/DTD/svg11.dtd">
<!-- Generated by graphviz version 2.47.0 (20210316.0004)
 -->
<!-- Title: dependencies Pages: 1 -->
<svg width="752pt" height="211pt"
 viewBox="0.00 0.00 752.00 211.00" xmlns="http://www.w3.org/2000/svg" xmlns:xlink="http://www.w3.org/1999/xlink">
<g id="graph0" class="graph" transform="scale(1 1) rotate(0) translate(4 207)">
<title>dependencies</title>
<polygon fill="white" stroke="transparent" points="-4,4 -4,-207 748,-207 748,4 -4,4"/>
<text text-anchor="start" x="351.01" y="-42.4" font-family="Times-12" font-weight="bold" font-size="14.00">Legend</text>
<polygon fill="#ffffb3" stroke="transparent" points="138,-10 138,-30 158,-30 158,-10 138,-10"/>
<text text-anchor="start" x="161.63" y="-15.4" font-family="Times-12" font-size="14.00"> &#160;Declarations</text>
<polygon fill="#8dd3c7" stroke="transparent" points="251,-10 251,-30 271,-30 271,-10 251,-10"/>
<text text-anchor="start" x="274.73" y="-15.4" font-family="Times-12" font-size="14.00"> &#160;Module</text>
<polygon fill="#80b1d3" stroke="transparent" points="337,-10 337,-30 357,-30 357,-10 337,-10"/>
<text text-anchor="start" x="360.78" y="-15.4" font-family="Times-12" font-size="14.00"> &#160;Bootstrap</text>
<polygon fill="#fdb462" stroke="transparent" points="434,-10 434,-30 454,-30 454,-10 434,-10"/>
<text text-anchor="start" x="457.67" y="-15.4" font-family="Times-12" font-size="14.00"> &#160;Providers</text>
<polygon fill="#fb8072" stroke="transparent" points="530,-10 530,-30 550,-30 550,-10 530,-10"/>
<text text-anchor="start" x="553.73" y="-15.4" font-family="Times-12" font-size="14.00"> &#160;Exports</text>
<g id="clust1" class="cluster">
<title>cluster_UsersModule</title>
<polygon fill="none" stroke="black" stroke-dasharray="1,5" points="8,-70 8,-195 736,-195 736,-70 8,-70"/>
</g>
<g id="clust7" class="cluster">
<title>cluster_UsersModule_imports</title>
<polygon fill="none" stroke="black" points="576,-78 576,-130 728,-130 728,-78 576,-78"/>
</g>
<g id="clust2" class="cluster">
<title>cluster_UsersModule_declarations</title>
<polygon fill="none" stroke="black" points="16,-78 16,-130 568,-130 568,-78 16,-78"/>
</g>
<!-- UAddComponent -->
<g id="node1" class="node">
<title>UAddComponent</title>
<polygon fill="#ffffb3" stroke="black" points="559.55,-122 444.45,-122 444.45,-86 559.55,-86 559.55,-122"/>
<text text-anchor="middle" x="502" y="-99.8" font-family="Times,serif" font-size="14.00">UAddComponent</text>
</g>
<!-- UsersModule -->
<g id="node5" class="node">
<title>UsersModule</title>
<polygon fill="#8dd3c7" stroke="black" points="407.92,-187 404.92,-191 383.92,-191 380.92,-187 316.08,-187 316.08,-151 407.92,-151 407.92,-187"/>
<text text-anchor="middle" x="362" y="-164.8" font-family="Times,serif" font-size="14.00">UsersModule</text>
</g>
<!-- UAddComponent&#45;&gt;UsersModule -->
<g id="edge1" class="edge">
<title>UAddComponent&#45;&gt;UsersModule</title>
<path fill="none" stroke="black" d="M502,-122.02C502,-139.37 502,-163 502,-163 502,-163 417.84,-163 417.84,-163"/>
<polygon fill="black" stroke="black" points="417.84,-159.5 407.84,-163 417.84,-166.5 417.84,-159.5"/>
</g>
<!-- UDeleteComponent -->
<g id="node2" class="node">
<title>UDeleteComponent</title>
<polygon fill="#ffffb3" stroke="black" points="425.97,-122 298.03,-122 298.03,-86 425.97,-86 425.97,-122"/>
<text text-anchor="middle" x="362" y="-99.8" font-family="Times,serif" font-size="14.00">UDeleteComponent</text>
</g>
<!-- UDeleteComponent&#45;&gt;UsersModule -->
<g id="edge2" class="edge">
<title>UDeleteComponent&#45;&gt;UsersModule</title>
<path fill="none" stroke="black" d="M362,-122.11C362,-122.11 362,-140.99 362,-140.99"/>
<polygon fill="black" stroke="black" points="358.5,-140.99 362,-150.99 365.5,-140.99 358.5,-140.99"/>
</g>
<!-- UEditComponent -->
<g id="node3" class="node">
<title>UEditComponent</title>
<polygon fill="#ffffb3" stroke="black" points="280.27,-122 165.73,-122 165.73,-86 280.27,-86 280.27,-122"/>
<text text-anchor="middle" x="223" y="-99.8" font-family="Times,serif" font-size="14.00">UEditComponent</text>
</g>
<!-- UEditComponent&#45;&gt;UsersModule -->
<g id="edge3" class="edge">
<title>UEditComponent&#45;&gt;UsersModule</title>
<path fill="none" stroke="black" d="M223,-122.02C223,-139.37 223,-163 223,-163 223,-163 306.1,-163 306.1,-163"/>
<polygon fill="black" stroke="black" points="306.1,-166.5 316.1,-163 306.1,-159.5 306.1,-166.5"/>
</g>
<!-- UIndexComponent -->
<g id="node4" class="node">
<title>UIndexComponent</title>
<polygon fill="#ffffb3" stroke="black" points="147.81,-122 24.19,-122 24.19,-86 147.81,-86 147.81,-122"/>
<text text-anchor="middle" x="86" y="-99.8" font-family="Times,serif" font-size="14.00">UIndexComponent</text>
</g>
<!-- UIndexComponent&#45;&gt;UsersModule -->
<g id="edge4" class="edge">
<title>UIndexComponent&#45;&gt;UsersModule</title>
<path fill="none" stroke="black" d="M86,-122.28C86,-143.32 86,-175 86,-175 86,-175 306.11,-175 306.11,-175"/>
<polygon fill="black" stroke="black" points="306.11,-178.5 316.11,-175 306.11,-171.5 306.11,-178.5"/>
</g>
<!-- UsersRoutingModule -->
<g id="node6" class="node">
<title>UsersRoutingModule</title>
<polygon fill="#8dd3c7" stroke="black" points="720.04,-122 717.04,-126 696.04,-126 693.04,-122 583.96,-122 583.96,-86 720.04,-86 720.04,-122"/>
<text text-anchor="middle" x="652" y="-99.8" font-family="Times,serif" font-size="14.00">UsersRoutingModule</text>
</g>
<!-- UsersRoutingModule&#45;&gt;UsersModule -->
<g id="edge5" class="edge">
<title>UsersRoutingModule&#45;&gt;UsersModule</title>
<path fill="none" stroke="black" d="M652,-122.28C652,-143.32 652,-175 652,-175 652,-175 417.95,-175 417.95,-175"/>
<polygon fill="black" stroke="black" points="417.95,-171.5 407.95,-175 417.95,-178.5 417.95,-171.5"/>
</g>
</g>
</svg>
