<?xml version="1.0" encoding="UTF-8" standalone="no"?>
<!DOCTYPE svg PUBLIC "-//W3C//DTD SVG 1.1//EN"
 "http://www.w3.org/Graphics/SVG/1.1/DTD/svg11.dtd">
<!-- Generated by graphviz version 2.47.0 (20210316.0004)
 -->
<!-- Title: dependencies Pages: 1 -->
<svg width="769pt" height="211pt"
 viewBox="0.00 0.00 769.00 211.00" xmlns="http://www.w3.org/2000/svg" xmlns:xlink="http://www.w3.org/1999/xlink">
<g id="graph0" class="graph" transform="scale(1 1) rotate(0) translate(4 207)">
<title>dependencies</title>
<polygon fill="white" stroke="transparent" points="-4,4 -4,-207 765,-207 765,4 -4,4"/>
<text text-anchor="start" x="359.51" y="-42.4" font-family="Times-12" font-weight="bold" font-size="14.00">Legend</text>
<polygon fill="#ffffb3" stroke="transparent" points="146.5,-10 146.5,-30 166.5,-30 166.5,-10 146.5,-10"/>
<text text-anchor="start" x="170.13" y="-15.4" font-family="Times-12" font-size="14.00"> &#160;Declarations</text>
<polygon fill="#8dd3c7" stroke="transparent" points="259.5,-10 259.5,-30 279.5,-30 279.5,-10 259.5,-10"/>
<text text-anchor="start" x="283.23" y="-15.4" font-family="Times-12" font-size="14.00"> &#160;Module</text>
<polygon fill="#80b1d3" stroke="transparent" points="345.5,-10 345.5,-30 365.5,-30 365.5,-10 345.5,-10"/>
<text text-anchor="start" x="369.28" y="-15.4" font-family="Times-12" font-size="14.00"> &#160;Bootstrap</text>
<polygon fill="#fdb462" stroke="transparent" points="442.5,-10 442.5,-30 462.5,-30 462.5,-10 442.5,-10"/>
<text text-anchor="start" x="466.17" y="-15.4" font-family="Times-12" font-size="14.00"> &#160;Providers</text>
<polygon fill="#fb8072" stroke="transparent" points="538.5,-10 538.5,-30 558.5,-30 558.5,-10 538.5,-10"/>
<text text-anchor="start" x="562.23" y="-15.4" font-family="Times-12" font-size="14.00"> &#160;Exports</text>
<g id="clust1" class="cluster">
<title>cluster_ExercicesModule</title>
<polygon fill="none" stroke="black" stroke-dasharray="1,5" points="8,-70 8,-195 753,-195 753,-70 8,-70"/>
</g>
<g id="clust7" class="cluster">
<title>cluster_ExercicesModule_imports</title>
<polygon fill="none" stroke="black" points="569,-78 569,-130 745,-130 745,-78 569,-78"/>
</g>
<g id="clust2" class="cluster">
<title>cluster_ExercicesModule_declarations</title>
<polygon fill="none" stroke="black" points="16,-78 16,-130 561,-130 561,-78 16,-78"/>
</g>
<!-- EAddComponent -->
<g id="node1" class="node">
<title>EAddComponent</title>
<polygon fill="#ffffb3" stroke="black" points="552.99,-122 439.01,-122 439.01,-86 552.99,-86 552.99,-122"/>
<text text-anchor="middle" x="496" y="-99.8" font-family="Times,serif" font-size="14.00">EAddComponent</text>
</g>
<!-- ExercicesModule -->
<g id="node5" class="node">
<title>ExercicesModule</title>
<polygon fill="#8dd3c7" stroke="black" points="414.96,-187 411.96,-191 390.96,-191 387.96,-187 301.04,-187 301.04,-151 414.96,-151 414.96,-187"/>
<text text-anchor="middle" x="358" y="-164.8" font-family="Times,serif" font-size="14.00">ExercicesModule</text>
</g>
<!-- EAddComponent&#45;&gt;ExercicesModule -->
<g id="edge1" class="edge">
<title>EAddComponent&#45;&gt;ExercicesModule</title>
<path fill="none" stroke="black" d="M496,-122.02C496,-139.37 496,-163 496,-163 496,-163 425.33,-163 425.33,-163"/>
<polygon fill="black" stroke="black" points="425.33,-159.5 415.33,-163 425.33,-166.5 425.33,-159.5"/>
</g>
<!-- EDeleteComponent -->
<g id="node2" class="node">
<title>EDeleteComponent</title>
<polygon fill="#ffffb3" stroke="black" points="421.42,-122 294.58,-122 294.58,-86 421.42,-86 421.42,-122"/>
<text text-anchor="middle" x="358" y="-99.8" font-family="Times,serif" font-size="14.00">EDeleteComponent</text>
</g>
<!-- EDeleteComponent&#45;&gt;ExercicesModule -->
<g id="edge2" class="edge">
<title>EDeleteComponent&#45;&gt;ExercicesModule</title>
<path fill="none" stroke="black" d="M358,-122.11C358,-122.11 358,-140.99 358,-140.99"/>
<polygon fill="black" stroke="black" points="354.5,-140.99 358,-150.99 361.5,-140.99 354.5,-140.99"/>
</g>
<!-- EEditComponent -->
<g id="node3" class="node">
<title>EEditComponent</title>
<polygon fill="#ffffb3" stroke="black" points="276.72,-122 163.28,-122 163.28,-86 276.72,-86 276.72,-122"/>
<text text-anchor="middle" x="220" y="-99.8" font-family="Times,serif" font-size="14.00">EEditComponent</text>
</g>
<!-- EEditComponent&#45;&gt;ExercicesModule -->
<g id="edge3" class="edge">
<title>EEditComponent&#45;&gt;ExercicesModule</title>
<path fill="none" stroke="black" d="M220,-122.02C220,-139.37 220,-163 220,-163 220,-163 290.67,-163 290.67,-163"/>
<polygon fill="black" stroke="black" points="290.67,-166.5 300.67,-163 290.67,-159.5 290.67,-166.5"/>
</g>
<!-- EIndexComponent -->
<g id="node4" class="node">
<title>EIndexComponent</title>
<polygon fill="#ffffb3" stroke="black" points="145.76,-122 24.24,-122 24.24,-86 145.76,-86 145.76,-122"/>
<text text-anchor="middle" x="85" y="-99.8" font-family="Times,serif" font-size="14.00">EIndexComponent</text>
</g>
<!-- EIndexComponent&#45;&gt;ExercicesModule -->
<g id="edge4" class="edge">
<title>EIndexComponent&#45;&gt;ExercicesModule</title>
<path fill="none" stroke="black" d="M85,-122.28C85,-143.32 85,-175 85,-175 85,-175 290.77,-175 290.77,-175"/>
<polygon fill="black" stroke="black" points="290.77,-178.5 300.77,-175 290.77,-171.5 290.77,-178.5"/>
</g>
<!-- ExercicesRoutingModule -->
<g id="node6" class="node">
<title>ExercicesRoutingModule</title>
<polygon fill="#8dd3c7" stroke="black" points="736.57,-122 733.57,-126 712.57,-126 709.57,-122 577.43,-122 577.43,-86 736.57,-86 736.57,-122"/>
<text text-anchor="middle" x="657" y="-99.8" font-family="Times,serif" font-size="14.00">ExercicesRoutingModule</text>
</g>
<!-- ExercicesRoutingModule&#45;&gt;ExercicesModule -->
<g id="edge5" class="edge">
<title>ExercicesRoutingModule&#45;&gt;ExercicesModule</title>
<path fill="none" stroke="black" d="M657,-122.28C657,-143.32 657,-175 657,-175 657,-175 425.3,-175 425.3,-175"/>
<polygon fill="black" stroke="black" points="425.3,-171.5 415.3,-175 425.3,-178.5 425.3,-171.5"/>
</g>
</g>
</svg>
