<?xml version="1.0" encoding="UTF-8" standalone="no"?>
<!DOCTYPE svg PUBLIC "-//W3C//DTD SVG 1.1//EN"
 "http://www.w3.org/Graphics/SVG/1.1/DTD/svg11.dtd">
<!-- Generated by graphviz version 2.47.0 (20210316.0004)
 -->
<!-- Title: dependencies Pages: 1 -->
<svg width="912pt" height="211pt"
 viewBox="0.00 0.00 912.00 211.00" xmlns="http://www.w3.org/2000/svg" xmlns:xlink="http://www.w3.org/1999/xlink">
<g id="graph0" class="graph" transform="scale(1 1) rotate(0) translate(4 207)">
<title>dependencies</title>
<polygon fill="white" stroke="transparent" points="-4,4 -4,-207 908,-207 908,4 -4,4"/>
<text text-anchor="start" x="431.01" y="-42.4" font-family="Times-12" font-weight="bold" font-size="14.00">Legend</text>
<polygon fill="#ffffb3" stroke="transparent" points="218,-10 218,-30 238,-30 238,-10 218,-10"/>
<text text-anchor="start" x="241.63" y="-15.4" font-family="Times-12" font-size="14.00"> &#160;Declarations</text>
<polygon fill="#8dd3c7" stroke="transparent" points="331,-10 331,-30 351,-30 351,-10 331,-10"/>
<text text-anchor="start" x="354.73" y="-15.4" font-family="Times-12" font-size="14.00"> &#160;Module</text>
<polygon fill="#80b1d3" stroke="transparent" points="417,-10 417,-30 437,-30 437,-10 417,-10"/>
<text text-anchor="start" x="440.78" y="-15.4" font-family="Times-12" font-size="14.00"> &#160;Bootstrap</text>
<polygon fill="#fdb462" stroke="transparent" points="514,-10 514,-30 534,-30 534,-10 514,-10"/>
<text text-anchor="start" x="537.67" y="-15.4" font-family="Times-12" font-size="14.00"> &#160;Providers</text>
<polygon fill="#fb8072" stroke="transparent" points="610,-10 610,-30 630,-30 630,-10 610,-10"/>
<text text-anchor="start" x="633.73" y="-15.4" font-family="Times-12" font-size="14.00"> &#160;Exports</text>
<g id="clust1" class="cluster">
<title>cluster_PublicModule</title>
<polygon fill="none" stroke="black" stroke-dasharray="1,5" points="8,-70 8,-195 896,-195 896,-70 8,-70"/>
</g>
<g id="clust8" class="cluster">
<title>cluster_PublicModule_imports</title>
<polygon fill="none" stroke="black" points="732,-78 732,-130 888,-130 888,-78 732,-78"/>
</g>
<g id="clust2" class="cluster">
<title>cluster_PublicModule_declarations</title>
<polygon fill="none" stroke="black" points="16,-78 16,-130 724,-130 724,-78 16,-78"/>
</g>
<!-- ContactComponent -->
<g id="node1" class="node">
<title>ContactComponent</title>
<polygon fill="#ffffb3" stroke="black" points="716.38,-122 591.62,-122 591.62,-86 716.38,-86 716.38,-122"/>
<text text-anchor="middle" x="654" y="-99.8" font-family="Times,serif" font-size="14.00">ContactComponent</text>
</g>
<!-- PublicModule -->
<g id="node6" class="node">
<title>PublicModule</title>
<polygon fill="#8dd3c7" stroke="black" points="493.83,-187 490.83,-191 469.83,-191 466.83,-187 398.17,-187 398.17,-151 493.83,-151 493.83,-187"/>
<text text-anchor="middle" x="446" y="-164.8" font-family="Times,serif" font-size="14.00">PublicModule</text>
</g>
<!-- ContactComponent&#45;&gt;PublicModule -->
<g id="edge1" class="edge">
<title>ContactComponent&#45;&gt;PublicModule</title>
<path fill="none" stroke="black" d="M654,-122.02C654,-139.37 654,-163 654,-163 654,-163 503.72,-163 503.72,-163"/>
<polygon fill="black" stroke="black" points="503.72,-159.5 493.72,-163 503.72,-166.5 503.72,-159.5"/>
</g>
<!-- HomeComponent -->
<g id="node2" class="node">
<title>HomeComponent</title>
<polygon fill="#ffffb3" stroke="black" points="573.55,-122 458.45,-122 458.45,-86 573.55,-86 573.55,-122"/>
<text text-anchor="middle" x="516" y="-99.8" font-family="Times,serif" font-size="14.00">HomeComponent</text>
</g>
<!-- HomeComponent&#45;&gt;PublicModule -->
<g id="edge2" class="edge">
<title>HomeComponent&#45;&gt;PublicModule</title>
<path fill="none" stroke="black" d="M475.95,-122.11C475.95,-122.11 475.95,-140.99 475.95,-140.99"/>
<polygon fill="black" stroke="black" points="472.45,-140.99 475.95,-150.99 479.45,-140.99 472.45,-140.99"/>
</g>
<!-- PheaderComponent -->
<g id="node3" class="node">
<title>PheaderComponent</title>
<polygon fill="#ffffb3" stroke="black" points="440.42,-122 313.58,-122 313.58,-86 440.42,-86 440.42,-122"/>
<text text-anchor="middle" x="377" y="-99.8" font-family="Times,serif" font-size="14.00">PheaderComponent</text>
</g>
<!-- PheaderComponent&#45;&gt;PublicModule -->
<g id="edge3" class="edge">
<title>PheaderComponent&#45;&gt;PublicModule</title>
<path fill="none" stroke="black" d="M419.27,-122.11C419.27,-122.11 419.27,-140.99 419.27,-140.99"/>
<polygon fill="black" stroke="black" points="415.77,-140.99 419.27,-150.99 422.77,-140.99 415.77,-140.99"/>
</g>
<!-- PlayoutComponent -->
<g id="node4" class="node">
<title>PlayoutComponent</title>
<polygon fill="#ffffb3" stroke="black" points="296.11,-122 171.89,-122 171.89,-86 296.11,-86 296.11,-122"/>
<text text-anchor="middle" x="234" y="-99.8" font-family="Times,serif" font-size="14.00">PlayoutComponent</text>
</g>
<!-- PlayoutComponent&#45;&gt;PublicModule -->
<g id="edge4" class="edge">
<title>PlayoutComponent&#45;&gt;PublicModule</title>
<path fill="none" stroke="black" d="M234,-122.02C234,-139.37 234,-163 234,-163 234,-163 388.16,-163 388.16,-163"/>
<polygon fill="black" stroke="black" points="388.16,-166.5 398.16,-163 388.16,-159.5 388.16,-166.5"/>
</g>
<!-- TrainingComponent -->
<g id="node5" class="node">
<title>TrainingComponent</title>
<polygon fill="#ffffb3" stroke="black" points="153.54,-122 24.46,-122 24.46,-86 153.54,-86 153.54,-122"/>
<text text-anchor="middle" x="89" y="-99.8" font-family="Times,serif" font-size="14.00">TrainingComponent</text>
</g>
<!-- TrainingComponent&#45;&gt;PublicModule -->
<g id="edge5" class="edge">
<title>TrainingComponent&#45;&gt;PublicModule</title>
<path fill="none" stroke="black" d="M89,-122.28C89,-143.32 89,-175 89,-175 89,-175 388.22,-175 388.22,-175"/>
<polygon fill="black" stroke="black" points="388.22,-178.5 398.22,-175 388.22,-171.5 388.22,-178.5"/>
</g>
<!-- PublicRoutingModule -->
<g id="node7" class="node">
<title>PublicRoutingModule</title>
<polygon fill="#8dd3c7" stroke="black" points="880.45,-122 877.45,-126 856.45,-126 853.45,-122 739.55,-122 739.55,-86 880.45,-86 880.45,-122"/>
<text text-anchor="middle" x="810" y="-99.8" font-family="Times,serif" font-size="14.00">PublicRoutingModule</text>
</g>
<!-- PublicRoutingModule&#45;&gt;PublicModule -->
<g id="edge6" class="edge">
<title>PublicRoutingModule&#45;&gt;PublicModule</title>
<path fill="none" stroke="black" d="M810,-122.28C810,-143.32 810,-175 810,-175 810,-175 503.96,-175 503.96,-175"/>
<polygon fill="black" stroke="black" points="503.96,-171.5 493.96,-175 503.96,-178.5 503.96,-171.5"/>
</g>
</g>
</svg>
