<?xml version="1.0" encoding="UTF-8" standalone="no"?>
<!DOCTYPE svg PUBLIC "-//W3C//DTD SVG 1.1//EN"
 "http://www.w3.org/Graphics/SVG/1.1/DTD/svg11.dtd">
<!-- Generated by graphviz version 2.47.0 (20210316.0004)
 -->
<!-- Title: dependencies Pages: 1 -->
<svg width="4074pt" height="284pt"
 viewBox="0.00 0.00 4074.00 284.00" xmlns="http://www.w3.org/2000/svg" xmlns:xlink="http://www.w3.org/1999/xlink">
<g id="graph0" class="graph" transform="scale(1 1) rotate(0) translate(4 280)">
<title>dependencies</title>
<polygon fill="white" stroke="transparent" points="-4,4 -4,-280 4070,-280 4070,4 -4,4"/>
<text text-anchor="start" x="2012.01" y="-42.4" font-family="Times-12" font-weight="bold" font-size="14.00">Legend</text>
<polygon fill="#ffffb3" stroke="transparent" points="1799,-10 1799,-30 1819,-30 1819,-10 1799,-10"/>
<text text-anchor="start" x="1822.63" y="-15.4" font-family="Times-12" font-size="14.00"> &#160;Declarations</text>
<polygon fill="#8dd3c7" stroke="transparent" points="1912,-10 1912,-30 1932,-30 1932,-10 1912,-10"/>
<text text-anchor="start" x="1935.73" y="-15.4" font-family="Times-12" font-size="14.00"> &#160;Module</text>
<polygon fill="#80b1d3" stroke="transparent" points="1998,-10 1998,-30 2018,-30 2018,-10 1998,-10"/>
<text text-anchor="start" x="2021.78" y="-15.4" font-family="Times-12" font-size="14.00"> &#160;Bootstrap</text>
<polygon fill="#fdb462" stroke="transparent" points="2095,-10 2095,-30 2115,-30 2115,-10 2095,-10"/>
<text text-anchor="start" x="2118.67" y="-15.4" font-family="Times-12" font-size="14.00"> &#160;Providers</text>
<polygon fill="#fb8072" stroke="transparent" points="2191,-10 2191,-30 2211,-30 2211,-10 2191,-10"/>
<text text-anchor="start" x="2214.73" y="-15.4" font-family="Times-12" font-size="14.00"> &#160;Exports</text>
<g id="clust1" class="cluster">
<title>cluster_AdminModule</title>
<polygon fill="none" stroke="black" stroke-dasharray="1,5" points="8,-70 8,-195 797,-195 797,-70 8,-70"/>
</g>
<g id="clust2" class="cluster">
<title>cluster_AdminModule_declarations</title>
<polygon fill="none" stroke="black" points="184,-78 184,-130 789,-130 789,-78 184,-78"/>
</g>
<g id="clust7" class="cluster">
<title>cluster_AdminModule_imports</title>
<polygon fill="none" stroke="black" points="16,-78 16,-130 176,-130 176,-78 16,-78"/>
</g>
<g id="clust17" class="cluster">
<title>cluster_AppModule</title>
<polygon fill="none" stroke="black" stroke-dasharray="1,5" points="805,-70 805,-268 1223,-268 1223,-70 805,-70"/>
</g>
<g id="clust18" class="cluster">
<title>cluster_AppModule_declarations</title>
<polygon fill="none" stroke="black" points="965,-78 965,-130 1215,-130 1215,-78 965,-78"/>
</g>
<g id="clust21" class="cluster">
<title>cluster_AppModule_imports</title>
<polygon fill="none" stroke="black" points="813,-78 813,-130 957,-130 957,-78 813,-78"/>
</g>
<g id="clust23" class="cluster">
<title>cluster_AppModule_bootstrap</title>
<polygon fill="none" stroke="black" points="966,-208 966,-260 1090,-260 1090,-208 966,-208"/>
</g>
<g id="clust31" class="cluster">
<title>cluster_AuthModule</title>
<polygon fill="none" stroke="black" stroke-dasharray="1,5" points="1231,-70 1231,-195 1673,-195 1673,-70 1231,-70"/>
</g>
<g id="clust32" class="cluster">
<title>cluster_AuthModule_declarations</title>
<polygon fill="none" stroke="black" points="1395,-78 1395,-130 1665,-130 1665,-78 1395,-78"/>
</g>
<g id="clust35" class="cluster">
<title>cluster_AuthModule_imports</title>
<polygon fill="none" stroke="black" points="1239,-78 1239,-130 1387,-130 1387,-78 1239,-78"/>
</g>
<g id="clust45" class="cluster">
<title>cluster_ExercicesModule</title>
<polygon fill="none" stroke="black" stroke-dasharray="1,5" points="1681,-70 1681,-195 2426,-195 2426,-70 1681,-70"/>
</g>
<g id="clust46" class="cluster">
<title>cluster_ExercicesModule_declarations</title>
<polygon fill="none" stroke="black" points="1873,-78 1873,-130 2418,-130 2418,-78 1873,-78"/>
</g>
<g id="clust51" class="cluster">
<title>cluster_ExercicesModule_imports</title>
<polygon fill="none" stroke="black" points="1689,-78 1689,-130 1865,-130 1865,-78 1689,-78"/>
</g>
<g id="clust61" class="cluster">
<title>cluster_PublicModule</title>
<polygon fill="none" stroke="black" stroke-dasharray="1,5" points="2434,-70 2434,-195 3322,-195 3322,-70 2434,-70"/>
</g>
<g id="clust62" class="cluster">
<title>cluster_PublicModule_declarations</title>
<polygon fill="none" stroke="black" points="2606,-78 2606,-130 3314,-130 3314,-78 2606,-78"/>
</g>
<g id="clust68" class="cluster">
<title>cluster_PublicModule_imports</title>
<polygon fill="none" stroke="black" points="2442,-78 2442,-130 2598,-130 2598,-78 2442,-78"/>
</g>
<g id="clust78" class="cluster">
<title>cluster_UsersModule</title>
<polygon fill="none" stroke="black" stroke-dasharray="1,5" points="3330,-70 3330,-195 4058,-195 4058,-70 3330,-70"/>
</g>
<g id="clust79" class="cluster">
<title>cluster_UsersModule_declarations</title>
<polygon fill="none" stroke="black" points="3498,-78 3498,-130 4050,-130 4050,-78 3498,-78"/>
</g>
<g id="clust84" class="cluster">
<title>cluster_UsersModule_imports</title>
<polygon fill="none" stroke="black" points="3338,-78 3338,-130 3490,-130 3490,-78 3338,-78"/>
</g>
<!-- AheaderComponent -->
<g id="node1" class="node">
<title>AheaderComponent</title>
<polygon fill="#ffffb3" stroke="black" points="781.24,-122 652.76,-122 652.76,-86 781.24,-86 781.24,-122"/>
<text text-anchor="middle" x="717" y="-99.8" font-family="Times,serif" font-size="14.00">AheaderComponent</text>
</g>
<!-- AdminModule -->
<g id="node5" class="node">
<title>AdminModule</title>
<polygon fill="#8dd3c7" stroke="black" points="468.44,-187 465.44,-191 444.44,-191 441.44,-187 369.56,-187 369.56,-151 468.44,-151 468.44,-187"/>
<text text-anchor="middle" x="419" y="-164.8" font-family="Times,serif" font-size="14.00">AdminModule</text>
</g>
<!-- AheaderComponent&#45;&gt;AdminModule -->
<g id="edge1" class="edge">
<title>AheaderComponent&#45;&gt;AdminModule</title>
<path fill="none" stroke="black" d="M717,-122.11C717,-141.34 717,-169 717,-169 717,-169 478.54,-169 478.54,-169"/>
<polygon fill="black" stroke="black" points="478.54,-165.5 468.54,-169 478.54,-172.5 478.54,-165.5"/>
</g>
<!-- AlayoutComponent -->
<g id="node2" class="node">
<title>AlayoutComponent</title>
<polygon fill="#ffffb3" stroke="black" points="634.44,-122 507.56,-122 507.56,-86 634.44,-86 634.44,-122"/>
<text text-anchor="middle" x="571" y="-99.8" font-family="Times,serif" font-size="14.00">AlayoutComponent</text>
</g>
<!-- AlayoutComponent&#45;&gt;AdminModule -->
<g id="edge2" class="edge">
<title>AlayoutComponent&#45;&gt;AdminModule</title>
<path fill="none" stroke="black" d="M571,-122.03C571,-138.4 571,-160 571,-160 571,-160 478.35,-160 478.35,-160"/>
<polygon fill="black" stroke="black" points="478.35,-156.5 468.35,-160 478.35,-163.5 478.35,-156.5"/>
</g>
<!-- DashboardComponent -->
<g id="node3" class="node">
<title>DashboardComponent</title>
<polygon fill="#ffffb3" stroke="black" points="489.97,-122 348.03,-122 348.03,-86 489.97,-86 489.97,-122"/>
<text text-anchor="middle" x="419" y="-99.8" font-family="Times,serif" font-size="14.00">DashboardComponent</text>
</g>
<!-- DashboardComponent&#45;&gt;AdminModule -->
<g id="edge3" class="edge">
<title>DashboardComponent&#45;&gt;AdminModule</title>
<path fill="none" stroke="black" d="M419,-122.11C419,-122.11 419,-140.99 419,-140.99"/>
<polygon fill="black" stroke="black" points="415.5,-140.99 419,-150.99 422.5,-140.99 415.5,-140.99"/>
</g>
<!-- SidemenuComponent -->
<g id="node4" class="node">
<title>SidemenuComponent</title>
<polygon fill="#ffffb3" stroke="black" points="329.83,-122 192.17,-122 192.17,-86 329.83,-86 329.83,-122"/>
<text text-anchor="middle" x="261" y="-99.8" font-family="Times,serif" font-size="14.00">SidemenuComponent</text>
</g>
<!-- SidemenuComponent&#45;&gt;AdminModule -->
<g id="edge4" class="edge">
<title>SidemenuComponent&#45;&gt;AdminModule</title>
<path fill="none" stroke="black" d="M261,-122.02C261,-139.37 261,-163 261,-163 261,-163 359.44,-163 359.44,-163"/>
<polygon fill="black" stroke="black" points="359.44,-166.5 369.44,-163 359.44,-159.5 359.44,-166.5"/>
</g>
<!-- AdminRoutingModule -->
<g id="node6" class="node">
<title>AdminRoutingModule</title>
<polygon fill="#8dd3c7" stroke="black" points="167.56,-122 164.56,-126 143.56,-126 140.56,-122 24.44,-122 24.44,-86 167.56,-86 167.56,-122"/>
<text text-anchor="middle" x="96" y="-99.8" font-family="Times,serif" font-size="14.00">AdminRoutingModule</text>
</g>
<!-- AdminRoutingModule&#45;&gt;AdminModule -->
<g id="edge5" class="edge">
<title>AdminRoutingModule&#45;&gt;AdminModule</title>
<path fill="none" stroke="black" d="M96,-122.28C96,-143.32 96,-175 96,-175 96,-175 359.59,-175 359.59,-175"/>
<polygon fill="black" stroke="black" points="359.59,-178.5 369.59,-175 359.59,-171.5 359.59,-178.5"/>
</g>
<!-- AppComponent -->
<g id="node7" class="node">
<title>AppComponent</title>
<polygon fill="#ffffb3" stroke="black" points="1206.94,-122 1101.06,-122 1101.06,-86 1206.94,-86 1206.94,-122"/>
<text text-anchor="middle" x="1154" y="-99.8" font-family="Times,serif" font-size="14.00">AppComponent</text>
</g>
<!-- AppModule -->
<g id="node9" class="node">
<title>AppModule</title>
<polygon fill="#8dd3c7" stroke="black" points="1069.66,-187 1066.66,-191 1045.66,-191 1042.66,-187 986.34,-187 986.34,-151 1069.66,-151 1069.66,-187"/>
<text text-anchor="middle" x="1028" y="-164.8" font-family="Times,serif" font-size="14.00">AppModule</text>
</g>
<!-- AppComponent&#45;&gt;AppModule -->
<g id="edge6" class="edge">
<title>AppComponent&#45;&gt;AppModule</title>
<path fill="none" stroke="black" d="M1154,-122.28C1154,-143.32 1154,-175 1154,-175 1154,-175 1079.96,-175 1079.96,-175"/>
<polygon fill="black" stroke="black" points="1079.96,-171.5 1069.96,-175 1079.96,-178.5 1079.96,-171.5"/>
</g>
<!-- ErrorComponent -->
<g id="node8" class="node">
<title>ErrorComponent</title>
<polygon fill="#ffffb3" stroke="black" points="1083.37,-122 972.63,-122 972.63,-86 1083.37,-86 1083.37,-122"/>
<text text-anchor="middle" x="1028" y="-99.8" font-family="Times,serif" font-size="14.00">ErrorComponent</text>
</g>
<!-- ErrorComponent&#45;&gt;AppModule -->
<g id="edge7" class="edge">
<title>ErrorComponent&#45;&gt;AppModule</title>
<path fill="none" stroke="black" d="M1028,-122.11C1028,-122.11 1028,-140.99 1028,-140.99"/>
<polygon fill="black" stroke="black" points="1024.5,-140.99 1028,-150.99 1031.5,-140.99 1024.5,-140.99"/>
</g>
<!-- AppComponent  -->
<g id="node11" class="node">
<title>AppComponent </title>
<polygon fill="#80b1d3" stroke="black" points="1082.44,-252 973.56,-252 973.56,-216 1082.44,-216 1082.44,-252"/>
<text text-anchor="middle" x="1028" y="-229.8" font-family="Times,serif" font-size="14.00">AppComponent </text>
</g>
<!-- AppModule&#45;&gt;AppComponent  -->
<g id="edge9" class="edge">
<title>AppModule&#45;&gt;AppComponent </title>
<path fill="none" stroke="black" stroke-dasharray="1,5" d="M1028,-187.11C1028,-187.11 1028,-205.99 1028,-205.99"/>
<polygon fill="black" stroke="black" points="1024.5,-205.99 1028,-215.99 1031.5,-205.99 1024.5,-205.99"/>
</g>
<!-- AppRoutingModule -->
<g id="node10" class="node">
<title>AppRoutingModule</title>
<polygon fill="#8dd3c7" stroke="black" points="949.27,-122 946.27,-126 925.27,-126 922.27,-122 820.73,-122 820.73,-86 949.27,-86 949.27,-122"/>
<text text-anchor="middle" x="885" y="-99.8" font-family="Times,serif" font-size="14.00">AppRoutingModule</text>
</g>
<!-- AppRoutingModule&#45;&gt;AppModule -->
<g id="edge8" class="edge">
<title>AppRoutingModule&#45;&gt;AppModule</title>
<path fill="none" stroke="black" d="M885,-122.29C885,-144.21 885,-178 885,-178 885,-178 976.25,-178 976.25,-178"/>
<polygon fill="black" stroke="black" points="976.25,-181.5 986.25,-178 976.25,-174.5 976.25,-181.5"/>
</g>
<!-- LoginComponent -->
<g id="node12" class="node">
<title>LoginComponent</title>
<polygon fill="#ffffb3" stroke="black" points="1657.28,-122 1542.72,-122 1542.72,-86 1657.28,-86 1657.28,-122"/>
<text text-anchor="middle" x="1600" y="-99.8" font-family="Times,serif" font-size="14.00">LoginComponent</text>
</g>
<!-- AuthModule -->
<g id="node14" class="node">
<title>AuthModule</title>
<polygon fill="#8dd3c7" stroke="black" points="1507.55,-187 1504.55,-191 1483.55,-191 1480.55,-187 1420.45,-187 1420.45,-151 1507.55,-151 1507.55,-187"/>
<text text-anchor="middle" x="1464" y="-164.8" font-family="Times,serif" font-size="14.00">AuthModule</text>
</g>
<!-- LoginComponent&#45;&gt;AuthModule -->
<g id="edge10" class="edge">
<title>LoginComponent&#45;&gt;AuthModule</title>
<path fill="none" stroke="black" d="M1600,-122.03C1600,-138.4 1600,-160 1600,-160 1600,-160 1517.78,-160 1517.78,-160"/>
<polygon fill="black" stroke="black" points="1517.78,-156.5 1507.78,-160 1517.78,-163.5 1517.78,-156.5"/>
</g>
<!-- LogoutComponent -->
<g id="node13" class="node">
<title>LogoutComponent</title>
<polygon fill="#ffffb3" stroke="black" points="1524.78,-122 1403.22,-122 1403.22,-86 1524.78,-86 1524.78,-122"/>
<text text-anchor="middle" x="1464" y="-99.8" font-family="Times,serif" font-size="14.00">LogoutComponent</text>
</g>
<!-- LogoutComponent&#45;&gt;AuthModule -->
<g id="edge11" class="edge">
<title>LogoutComponent&#45;&gt;AuthModule</title>
<path fill="none" stroke="black" d="M1464,-122.11C1464,-122.11 1464,-140.99 1464,-140.99"/>
<polygon fill="black" stroke="black" points="1460.5,-140.99 1464,-150.99 1467.5,-140.99 1460.5,-140.99"/>
</g>
<!-- AuthRoutingModule -->
<g id="node15" class="node">
<title>AuthRoutingModule</title>
<polygon fill="#8dd3c7" stroke="black" points="1379.17,-122 1376.17,-126 1355.17,-126 1352.17,-122 1246.83,-122 1246.83,-86 1379.17,-86 1379.17,-122"/>
<text text-anchor="middle" x="1313" y="-99.8" font-family="Times,serif" font-size="14.00">AuthRoutingModule</text>
</g>
<!-- AuthRoutingModule&#45;&gt;AuthModule -->
<g id="edge12" class="edge">
<title>AuthRoutingModule&#45;&gt;AuthModule</title>
<path fill="none" stroke="black" d="M1313,-122.02C1313,-139.37 1313,-163 1313,-163 1313,-163 1410.32,-163 1410.32,-163"/>
<polygon fill="black" stroke="black" points="1410.32,-166.5 1420.32,-163 1410.32,-159.5 1410.32,-166.5"/>
</g>
<!-- EAddComponent -->
<g id="node16" class="node">
<title>EAddComponent</title>
<polygon fill="#ffffb3" stroke="black" points="2409.99,-122 2296.01,-122 2296.01,-86 2409.99,-86 2409.99,-122"/>
<text text-anchor="middle" x="2353" y="-99.8" font-family="Times,serif" font-size="14.00">EAddComponent</text>
</g>
<!-- ExercicesModule -->
<g id="node20" class="node">
<title>ExercicesModule</title>
<polygon fill="#8dd3c7" stroke="black" points="2133.96,-187 2130.96,-191 2109.96,-191 2106.96,-187 2020.04,-187 2020.04,-151 2133.96,-151 2133.96,-187"/>
<text text-anchor="middle" x="2077" y="-164.8" font-family="Times,serif" font-size="14.00">ExercicesModule</text>
</g>
<!-- EAddComponent&#45;&gt;ExercicesModule -->
<g id="edge13" class="edge">
<title>EAddComponent&#45;&gt;ExercicesModule</title>
<path fill="none" stroke="black" d="M2353,-122.01C2353,-144.49 2353,-180 2353,-180 2353,-180 2144.19,-180 2144.19,-180"/>
<polygon fill="black" stroke="black" points="2144.19,-176.5 2134.19,-180 2144.19,-183.5 2144.19,-176.5"/>
</g>
<!-- EDeleteComponent -->
<g id="node17" class="node">
<title>EDeleteComponent</title>
<polygon fill="#ffffb3" stroke="black" points="2278.42,-122 2151.58,-122 2151.58,-86 2278.42,-86 2278.42,-122"/>
<text text-anchor="middle" x="2215" y="-99.8" font-family="Times,serif" font-size="14.00">EDeleteComponent</text>
</g>
<!-- EDeleteComponent&#45;&gt;ExercicesModule -->
<g id="edge14" class="edge">
<title>EDeleteComponent&#45;&gt;ExercicesModule</title>
<path fill="none" stroke="black" d="M2215,-122.13C2215,-142.57 2215,-173 2215,-173 2215,-173 2144.33,-173 2144.33,-173"/>
<polygon fill="black" stroke="black" points="2144.33,-169.5 2134.33,-173 2144.33,-176.5 2144.33,-169.5"/>
</g>
<!-- EEditComponent -->
<g id="node18" class="node">
<title>EEditComponent</title>
<polygon fill="#ffffb3" stroke="black" points="2133.72,-122 2020.28,-122 2020.28,-86 2133.72,-86 2133.72,-122"/>
<text text-anchor="middle" x="2077" y="-99.8" font-family="Times,serif" font-size="14.00">EEditComponent</text>
</g>
<!-- EEditComponent&#45;&gt;ExercicesModule -->
<g id="edge15" class="edge">
<title>EEditComponent&#45;&gt;ExercicesModule</title>
<path fill="none" stroke="black" d="M2077,-122.11C2077,-122.11 2077,-140.99 2077,-140.99"/>
<polygon fill="black" stroke="black" points="2073.5,-140.99 2077,-150.99 2080.5,-140.99 2073.5,-140.99"/>
</g>
<!-- EIndexComponent -->
<g id="node19" class="node">
<title>EIndexComponent</title>
<polygon fill="#ffffb3" stroke="black" points="2002.76,-122 1881.24,-122 1881.24,-86 2002.76,-86 2002.76,-122"/>
<text text-anchor="middle" x="1942" y="-99.8" font-family="Times,serif" font-size="14.00">EIndexComponent</text>
</g>
<!-- EIndexComponent&#45;&gt;ExercicesModule -->
<g id="edge16" class="edge">
<title>EIndexComponent&#45;&gt;ExercicesModule</title>
<path fill="none" stroke="black" d="M1942,-122.11C1942,-141.34 1942,-169 1942,-169 1942,-169 2009.75,-169 2009.75,-169"/>
<polygon fill="black" stroke="black" points="2009.75,-172.5 2019.75,-169 2009.75,-165.5 2009.75,-172.5"/>
</g>
<!-- ExercicesRoutingModule -->
<g id="node21" class="node">
<title>ExercicesRoutingModule</title>
<polygon fill="#8dd3c7" stroke="black" points="1856.57,-122 1853.57,-126 1832.57,-126 1829.57,-122 1697.43,-122 1697.43,-86 1856.57,-86 1856.57,-122"/>
<text text-anchor="middle" x="1777" y="-99.8" font-family="Times,serif" font-size="14.00">ExercicesRoutingModule</text>
</g>
<!-- ExercicesRoutingModule&#45;&gt;ExercicesModule -->
<g id="edge17" class="edge">
<title>ExercicesRoutingModule&#45;&gt;ExercicesModule</title>
<path fill="none" stroke="black" d="M1777,-122.29C1777,-144.21 1777,-178 1777,-178 1777,-178 2009.87,-178 2009.87,-178"/>
<polygon fill="black" stroke="black" points="2009.87,-181.5 2019.87,-178 2009.87,-174.5 2009.87,-181.5"/>
</g>
<!-- ContactComponent -->
<g id="node22" class="node">
<title>ContactComponent</title>
<polygon fill="#ffffb3" stroke="black" points="3306.38,-122 3181.62,-122 3181.62,-86 3306.38,-86 3306.38,-122"/>
<text text-anchor="middle" x="3244" y="-99.8" font-family="Times,serif" font-size="14.00">ContactComponent</text>
</g>
<!-- PublicModule -->
<g id="node27" class="node">
<title>PublicModule</title>
<polygon fill="#8dd3c7" stroke="black" points="2942.83,-187 2939.83,-191 2918.83,-191 2915.83,-187 2847.17,-187 2847.17,-151 2942.83,-151 2942.83,-187"/>
<text text-anchor="middle" x="2895" y="-164.8" font-family="Times,serif" font-size="14.00">PublicModule</text>
</g>
<!-- ContactComponent&#45;&gt;PublicModule -->
<g id="edge18" class="edge">
<title>ContactComponent&#45;&gt;PublicModule</title>
<path fill="none" stroke="black" d="M3244,-122.27C3244,-140.56 3244,-166 3244,-166 3244,-166 2952.8,-166 2952.8,-166"/>
<polygon fill="black" stroke="black" points="2952.8,-162.5 2942.8,-166 2952.8,-169.5 2952.8,-162.5"/>
</g>
<!-- HomeComponent -->
<g id="node23" class="node">
<title>HomeComponent</title>
<polygon fill="#ffffb3" stroke="black" points="3163.55,-122 3048.45,-122 3048.45,-86 3163.55,-86 3163.55,-122"/>
<text text-anchor="middle" x="3106" y="-99.8" font-family="Times,serif" font-size="14.00">HomeComponent</text>
</g>
<!-- HomeComponent&#45;&gt;PublicModule -->
<g id="edge19" class="edge">
<title>HomeComponent&#45;&gt;PublicModule</title>
<path fill="none" stroke="black" d="M3106,-122.01C3106,-138.05 3106,-159 3106,-159 3106,-159 2952.88,-159 2952.88,-159"/>
<polygon fill="black" stroke="black" points="2952.88,-155.5 2942.88,-159 2952.88,-162.5 2952.88,-155.5"/>
</g>
<!-- PheaderComponent -->
<g id="node24" class="node">
<title>PheaderComponent</title>
<polygon fill="#ffffb3" stroke="black" points="3030.42,-122 2903.58,-122 2903.58,-86 3030.42,-86 3030.42,-122"/>
<text text-anchor="middle" x="2967" y="-99.8" font-family="Times,serif" font-size="14.00">PheaderComponent</text>
</g>
<!-- PheaderComponent&#45;&gt;PublicModule -->
<g id="edge20" class="edge">
<title>PheaderComponent&#45;&gt;PublicModule</title>
<path fill="none" stroke="black" d="M2923.23,-122.11C2923.23,-122.11 2923.23,-140.99 2923.23,-140.99"/>
<polygon fill="black" stroke="black" points="2919.73,-140.99 2923.23,-150.99 2926.73,-140.99 2919.73,-140.99"/>
</g>
<!-- PlayoutComponent -->
<g id="node25" class="node">
<title>PlayoutComponent</title>
<polygon fill="#ffffb3" stroke="black" points="2886.11,-122 2761.89,-122 2761.89,-86 2886.11,-86 2886.11,-122"/>
<text text-anchor="middle" x="2824" y="-99.8" font-family="Times,serif" font-size="14.00">PlayoutComponent</text>
</g>
<!-- PlayoutComponent&#45;&gt;PublicModule -->
<g id="edge21" class="edge">
<title>PlayoutComponent&#45;&gt;PublicModule</title>
<path fill="none" stroke="black" d="M2866.7,-122.11C2866.7,-122.11 2866.7,-140.99 2866.7,-140.99"/>
<polygon fill="black" stroke="black" points="2863.2,-140.99 2866.7,-150.99 2870.2,-140.99 2863.2,-140.99"/>
</g>
<!-- TrainingComponent -->
<g id="node26" class="node">
<title>TrainingComponent</title>
<polygon fill="#ffffb3" stroke="black" points="2743.54,-122 2614.46,-122 2614.46,-86 2743.54,-86 2743.54,-122"/>
<text text-anchor="middle" x="2679" y="-99.8" font-family="Times,serif" font-size="14.00">TrainingComponent</text>
</g>
<!-- TrainingComponent&#45;&gt;PublicModule -->
<g id="edge22" class="edge">
<title>TrainingComponent&#45;&gt;PublicModule</title>
<path fill="none" stroke="black" d="M2679,-122.01C2679,-138.05 2679,-159 2679,-159 2679,-159 2837.33,-159 2837.33,-159"/>
<polygon fill="black" stroke="black" points="2837.33,-162.5 2847.33,-159 2837.33,-155.5 2837.33,-162.5"/>
</g>
<!-- PublicRoutingModule -->
<g id="node28" class="node">
<title>PublicRoutingModule</title>
<polygon fill="#8dd3c7" stroke="black" points="2590.45,-122 2587.45,-126 2566.45,-126 2563.45,-122 2449.55,-122 2449.55,-86 2590.45,-86 2590.45,-122"/>
<text text-anchor="middle" x="2520" y="-99.8" font-family="Times,serif" font-size="14.00">PublicRoutingModule</text>
</g>
<!-- PublicRoutingModule&#45;&gt;PublicModule -->
<g id="edge23" class="edge">
<title>PublicRoutingModule&#45;&gt;PublicModule</title>
<path fill="none" stroke="black" d="M2520,-122.27C2520,-140.56 2520,-166 2520,-166 2520,-166 2837.13,-166 2837.13,-166"/>
<polygon fill="black" stroke="black" points="2837.13,-169.5 2847.13,-166 2837.13,-162.5 2837.13,-169.5"/>
</g>
<!-- UAddComponent -->
<g id="node29" class="node">
<title>UAddComponent</title>
<polygon fill="#ffffb3" stroke="black" points="4041.55,-122 3926.45,-122 3926.45,-86 4041.55,-86 4041.55,-122"/>
<text text-anchor="middle" x="3984" y="-99.8" font-family="Times,serif" font-size="14.00">UAddComponent</text>
</g>
<!-- UsersModule -->
<g id="node33" class="node">
<title>UsersModule</title>
<polygon fill="#8dd3c7" stroke="black" points="3750.92,-187 3747.92,-191 3726.92,-191 3723.92,-187 3659.08,-187 3659.08,-151 3750.92,-151 3750.92,-187"/>
<text text-anchor="middle" x="3705" y="-164.8" font-family="Times,serif" font-size="14.00">UsersModule</text>
</g>
<!-- UAddComponent&#45;&gt;UsersModule -->
<g id="edge24" class="edge">
<title>UAddComponent&#45;&gt;UsersModule</title>
<path fill="none" stroke="black" d="M3984,-122.28C3984,-143.32 3984,-175 3984,-175 3984,-175 3760.76,-175 3760.76,-175"/>
<polygon fill="black" stroke="black" points="3760.76,-171.5 3750.76,-175 3760.76,-178.5 3760.76,-171.5"/>
</g>
<!-- UDeleteComponent -->
<g id="node30" class="node">
<title>UDeleteComponent</title>
<polygon fill="#ffffb3" stroke="black" points="3907.97,-122 3780.03,-122 3780.03,-86 3907.97,-86 3907.97,-122"/>
<text text-anchor="middle" x="3844" y="-99.8" font-family="Times,serif" font-size="14.00">UDeleteComponent</text>
</g>
<!-- UDeleteComponent&#45;&gt;UsersModule -->
<g id="edge25" class="edge">
<title>UDeleteComponent&#45;&gt;UsersModule</title>
<path fill="none" stroke="black" d="M3844,-122.02C3844,-139.37 3844,-163 3844,-163 3844,-163 3760.9,-163 3760.9,-163"/>
<polygon fill="black" stroke="black" points="3760.9,-159.5 3750.9,-163 3760.9,-166.5 3760.9,-159.5"/>
</g>
<!-- UEditComponent -->
<g id="node31" class="node">
<title>UEditComponent</title>
<polygon fill="#ffffb3" stroke="black" points="3762.27,-122 3647.73,-122 3647.73,-86 3762.27,-86 3762.27,-122"/>
<text text-anchor="middle" x="3705" y="-99.8" font-family="Times,serif" font-size="14.00">UEditComponent</text>
</g>
<!-- UEditComponent&#45;&gt;UsersModule -->
<g id="edge26" class="edge">
<title>UEditComponent&#45;&gt;UsersModule</title>
<path fill="none" stroke="black" d="M3705,-122.11C3705,-122.11 3705,-140.99 3705,-140.99"/>
<polygon fill="black" stroke="black" points="3701.5,-140.99 3705,-150.99 3708.5,-140.99 3701.5,-140.99"/>
</g>
<!-- UIndexComponent -->
<g id="node32" class="node">
<title>UIndexComponent</title>
<polygon fill="#ffffb3" stroke="black" points="3629.81,-122 3506.19,-122 3506.19,-86 3629.81,-86 3629.81,-122"/>
<text text-anchor="middle" x="3568" y="-99.8" font-family="Times,serif" font-size="14.00">UIndexComponent</text>
</g>
<!-- UIndexComponent&#45;&gt;UsersModule -->
<g id="edge27" class="edge">
<title>UIndexComponent&#45;&gt;UsersModule</title>
<path fill="none" stroke="black" d="M3568,-122.13C3568,-142.57 3568,-173 3568,-173 3568,-173 3649,-173 3649,-173"/>
<polygon fill="black" stroke="black" points="3649,-176.5 3659,-173 3649,-169.5 3649,-176.5"/>
</g>
<!-- UsersRoutingModule -->
<g id="node34" class="node">
<title>UsersRoutingModule</title>
<polygon fill="#8dd3c7" stroke="black" points="3482.04,-122 3479.04,-126 3458.04,-126 3455.04,-122 3345.96,-122 3345.96,-86 3482.04,-86 3482.04,-122"/>
<text text-anchor="middle" x="3414" y="-99.8" font-family="Times,serif" font-size="14.00">UsersRoutingModule</text>
</g>
<!-- UsersRoutingModule&#45;&gt;UsersModule -->
<g id="edge28" class="edge">
<title>UsersRoutingModule&#45;&gt;UsersModule</title>
<path fill="none" stroke="black" d="M3414,-122.01C3414,-144.49 3414,-180 3414,-180 3414,-180 3649.21,-180 3649.21,-180"/>
<polygon fill="black" stroke="black" points="3649.21,-183.5 3659.21,-180 3649.21,-176.5 3649.21,-183.5"/>
</g>
</g>
</svg>
